<?xml version="1.0" encoding="UTF-8" standalone="no"?>
<!-- Generator: Adobe Illustrator 12.0.0, SVG Export Plug-In . SVG Version: 6.00 Build 51448)  -->

<svg
   xmlns:dc="http://purl.org/dc/elements/1.1/"
   xmlns:cc="http://creativecommons.org/ns#"
   xmlns:rdf="http://www.w3.org/1999/02/22-rdf-syntax-ns#"
   xmlns:svg="http://www.w3.org/2000/svg"
   xmlns="http://www.w3.org/2000/svg"
   xmlns:sodipodi="http://sodipodi.sourceforge.net/DTD/sodipodi-0.dtd"
   xmlns:inkscape="http://www.inkscape.org/namespaces/inkscape"
   version="1.1"
   id="Layer_1"
   width="148.172"
   height="39.176"
   viewBox="0 0 148.172 39.176"
   overflow="visible"
   enable-background="new 0 0 148.172 39.176"
   xml:space="preserve"
   sodipodi:docname="logo.svg"
   inkscape:version="0.92.4 (5da689c313, 2019-01-14)"><metadata
   id="metadata32"><rdf:RDF><cc:Work
       rdf:about=""><dc:format>image/svg+xml</dc:format><dc:type
         rdf:resource="http://purl.org/dc/dcmitype/StillImage" /></cc:Work></rdf:RDF></metadata><defs
   id="defs30" /><sodipodi:namedview
   pagecolor="#ffffff"
   bordercolor="#666666"
   borderopacity="1"
   objecttolerance="10"
   gridtolerance="10"
   guidetolerance="10"
   inkscape:pageopacity="0"
   inkscape:pageshadow="2"
   inkscape:window-width="1366"
   inkscape:window-height="705"
   id="namedview28"
   showgrid="false"
   inkscape:zoom="5.7791373"
   inkscape:cx="81.207316"
   inkscape:cy="10.799222"
   inkscape:window-x="-8"
   inkscape:window-y="-8"
   inkscape:window-maximized="1"
   inkscape:current-layer="Layer_1" />
<g
   id="logo"
   transform="matrix(1.0058897,0,0,1.2146129,-140.30544,-40.955701)">
	<text
   transform="translate(140,65.5952)"
   font-size="23"
   id="text22"
   style="font-size:23px;font-family:Arial-BoldMT">  <tspan
   style="font-style:normal;font-variant:normal;font-weight:normal;font-stretch:normal;font-family:sans-serif;-inkscape-font-specification:sans-serif"
   id="tspan3737">Websterr</tspan></text>


	<path
   id="Rectangle_1"
   d="m 284.809,34.594 v 0 c 1.203,1.202 1.203,3.152 0,4.354 l -9.895,9.895 c -1.203,1.203 -3.152,1.203 -4.355,0 v 0 c -1.202,-1.202 -1.202,-3.152 0,-4.354 l 9.896,-9.895 c 1.202,-1.202 3.152,-1.202 4.354,0 z"
   inkscape:connector-curvature="0"
   style="fill:#00c2ff" />
	<path
   id="Rectangle_2"
   d="m 285.997,45.174 v 0 c 1.202,1.202 1.202,3.152 0,4.354 l -9.896,9.895 c -1.202,1.203 -3.151,1.203 -4.354,0 v 0 c -1.203,-1.202 -1.203,-3.151 0,-4.354 l 9.895,-9.896 c 1.202,-1.201 3.151,-1.201 4.355,10e-4 z"
   inkscape:connector-curvature="0"
   style="fill:#00cc80" />
</g>
</svg>